<svg width="616" height="204" viewBox="0 0 616 204" fill="none" xmlns="http://www.w3.org/2000/svg">
<path d="M40.0001 203.1C38.4001 203.1 36.9001 203.1 35.3001 203C32.0001 203 28.8001 202.7 25.6001 202.1C22.6001 201.6 19.7001 200.6 17.0001 199.2C14.3001 197.8 11.8001 196 9.7001 193.8C7.5001 191.6 5.7001 189.1 4.4001 186.4C3.0001 183.6 2.1001 180.7 1.6001 177.6C1.1001 174.3 0.800096 171 0.700096 167.6C0.700096 166.5 0.600098 162.8 0.600098 162.8V40.2001C0.600098 40.2001 0.600096 36.5001 0.700096 35.5001C0.700096 32.2001 1.0001 28.8001 1.6001 25.6001C2.1001 22.5001 3.0001 19.6001 4.4001 16.8001C7.2001 11.3001 11.6001 6.80009 17.0001 4.00009C19.7001 2.60009 22.6001 1.6001 25.6001 1.1001C28.8001 0.600098 32.1001 0.300089 35.4001 0.200089L40.1001 0.100098H575.6L580.4 0.200089C583.6 0.200089 586.9 0.500098 590.1 1.1001C593.1 1.6001 596.1 2.60009 598.8 4.00009C604.2 6.80009 608.6 11.3001 611.4 16.8001C612.8 19.6001 613.7 22.5001 614.2 25.6001C614.7 28.9001 615 32.3001 615.1 35.6001C615.1 37.1001 615.1 38.7001 615.1 40.3001C615.1 42.3001 615.1 44.2001 615.1 46.1001V157.2C615.1 159.1 615.1 161 615.1 162.9C615.1 164.6 615.1 166.2 615.1 167.8C615 171.1 614.7 174.4 614.2 177.6C613.7 180.7 612.8 183.7 611.4 186.5C610 189.2 608.2 191.7 606.1 193.9C604 196.1 601.5 197.9 598.8 199.3C596.1 200.7 593.1 201.7 590.1 202.2C586.9 202.7 583.6 203 580.4 203.1C578.9 203.1 577.3 203.2 575.7 203.2H570L40.0001 203.1Z" fill="black"/>
<path fill-rule="evenodd" clip-rule="evenodd" d="M122.1 63.4001C122.3 63.1001 122.5 62.9001 122.8 62.6001L132.3 53.1001C135.4 50.0001 140.5 50.0001 143.7 53.1001C146.8 56.2001 146.8 61.3001 143.7 64.4001L135.5 72.5001C142.6 79.2001 146.8 87.5001 148.5 97.3001C149.4 102.7 147.7 104.8 141.7 104.8H54.5002C48.1002 104.9 45.9002 102.6 47.0002 97.0001C48.8002 88.0001 52.5002 80.3001 58.2002 74.1001L48.9002 64.9001C45.8002 61.8001 45.8002 56.7001 48.9002 53.6001C52.0002 50.5001 57.1002 50.5001 60.3002 53.6001L69.8002 63.1001C70.2002 63.5001 70.6002 64.0001 70.9002 64.5001C72.7002 63.5001 74.7002 62.6001 76.7002 61.8001C92.4002 55.6001 107.7 56.3001 122.1 63.4001ZM78.2002 86.8001C78.2002 89.0001 76.4002 90.8001 74.2002 90.8001C72.0002 90.8001 70.2002 89.0001 70.2002 86.8001C70.2002 84.6001 72.0002 82.8001 74.2002 82.8001C76.4002 82.8001 78.2002 84.6001 78.2002 86.8001ZM121.2 90.8001C123.4 90.8001 125.2 89.0001 125.2 86.8001C125.2 84.6001 123.4 82.8001 121.2 82.8001C119 82.8001 117.2 84.6001 117.2 86.8001C117.2 89.0001 119 90.8001 121.2 90.8001Z" fill="#A4C639"/>
<path d="M52.7 149C54.8 149 55.9 147.9 56.7 145.2L58 141.3H69L70.2 145.2C71 147.9 72.2 149 74.3 149C76.6 149 78.1 147.7 78.1 145.6C78.1 144.8 77.9 143.8 77.5 142.5L70.3 121.4C69 117.5 67.2 116 63.7 116C60.2 116 58.4 117.6 57.1 121.4L49.8 142.5C49.2 144.1 49 145 49 145.8C49 147.6 50.5 149 52.7 149ZM59.6 135.5L63.3 123.1H63.7L67.4 135.5H59.6Z" fill="#A4C639"/>
<path d="M88.4 148.9C90.9 148.9 92.4 147.3 92.4 144.6V138.2H97.7C105.2 138.2 109.8 134.2 109.8 127.1C109.8 120.4 105.3 116 98.1 116H89.7C85.9 116 84.5 117.5 84.5 121.4V144.6C84.5 147.4 85.9 148.9 88.4 148.9ZM92.4 132.4V122.2H96.9C100.1 122.2 101.9 124.1 101.9 127.3C101.9 131.1 100.1 132.4 96 132.4H92.4Z" fill="#A4C639"/>
<path d="M139 148.9C141.3 148.9 142.8 147.4 142.8 145.2C142.8 144.1 142.4 143.3 141.2 141.6L133 130.6L140.7 122.3C141.8 121.2 142.1 120.4 142.1 119.4C142.1 117.5 140.6 115.9 138.6 115.9C137.5 115.9 136.6 116.4 135.5 117.6L124.5 129.5H124V120.1C124 117.4 122.6 115.8 120 115.8C117.5 115.8 116 117.3 116 120.1V144.7C116 147.4 117.5 149 120.1 149C122.6 149 124 147.5 124 144.7V138.6L127 135.5L135 146.4C136.3 148.1 137.5 148.9 139 148.9Z" fill="#A4C639"/>
<path d="M172 47.2001V76.2001H182.5C187.2 76.2001 190.8 74.9001 193.2 72.3001C195.5 69.8001 196.7 66.2001 196.7 61.7001C196.7 57.1001 195.6 53.6001 193.3 51.1001C190.8 48.5001 187.3 47.2001 182.6 47.2001H172ZM176.5 51.0001H181.9C185.6 51.0001 188.3 51.9001 190 53.6001C191.6 55.3001 192.5 58.0001 192.5 61.7001C192.5 65.4001 191.6 68.0001 190 69.8001C188.3 71.5001 185.5 72.4001 181.9 72.4001H176.6V51.0001H176.5ZM210.6 54.6001C207.4 54.6001 204.8 55.7001 202.9 57.8001C201 59.9001 200 62.5001 200 65.7001C200 68.9001 200.9 71.5001 202.8 73.5001C204.8 75.6001 207.3 76.7001 210.5 76.7001C213.7 76.7001 216.3 75.6001 218.2 73.5001C220.1 71.5001 221 68.8001 221 65.7001C221 62.5001 220 59.9001 218.1 57.8001C216.4 55.7001 213.8 54.6001 210.6 54.6001ZM210.6 58.2001C212.6 58.2001 214.2 59.0001 215.3 60.6001C216.3 61.9001 216.8 63.7001 216.8 65.8001C216.8 67.9001 216.3 69.6001 215.3 71.0001C214.2 72.5001 212.6 73.4001 210.6 73.4001C208.6 73.4001 207 72.6001 205.9 71.0001C204.9 69.7001 204.5 68.0001 204.5 65.8001C204.5 63.7001 204.9 61.9001 205.9 60.6001C207.1 58.9001 208.6 58.2001 210.6 58.2001ZM223 55.2001L230.2 76.2001H234.2L238.6 60.5001L243 76.2001H247L254.2 55.2001H249.4L244.9 71.1001L240.6 55.2001H236.6L232.3 71.1001L227.8 55.2001H223ZM267.5 54.6001C266.2 54.6001 265 54.8001 263.9 55.4001C262.8 55.9001 261.9 56.7001 261.1 57.8001V55.2001H256.8V76.2001H261.1V63.6001C261.3 61.9001 261.9 60.6001 262.9 59.6001C263.8 58.7001 264.9 58.3001 266.1 58.3001C269.4 58.3001 271 60.1001 271 63.7001V76.3001H275.3V63.3001C275.4 57.5001 272.8 54.6001 267.5 54.6001ZM280.9 46.6001V76.2001H285.2V46.6001H280.9ZM300.3 54.6001C297.1 54.6001 294.5 55.7001 292.6 57.8001C290.7 59.9001 289.7 62.5001 289.7 65.7001C289.7 68.9001 290.6 71.5001 292.5 73.5001C294.5 75.6001 297 76.7001 300.2 76.7001C303.4 76.7001 306 75.6001 307.9 73.5001C309.8 71.5001 310.7 68.8001 310.7 65.7001C310.7 62.5001 309.7 59.9001 307.8 57.8001C306.1 55.7001 303.5 54.6001 300.3 54.6001ZM300.3 58.2001C302.3 58.2001 303.9 59.0001 305 60.6001C306 61.9001 306.5 63.7001 306.5 65.8001C306.5 67.9001 306 69.6001 305 71.0001C303.9 72.5001 302.3 73.4001 300.3 73.4001C298.3 73.4001 296.7 72.6001 295.6 71.0001C294.6 69.7001 294.2 68.0001 294.2 65.8001C294.2 63.7001 294.6 61.9001 295.6 60.6001C296.8 58.9001 298.3 58.2001 300.3 58.2001ZM324.5 54.6001C321.9 54.6001 319.8 55.0001 318.2 56.0001C316.4 57.1001 315.3 58.8001 314.8 61.0001L319.1 61.4001C319.3 60.2001 320 59.4001 320.9 58.8001C321.7 58.3001 322.8 58.1001 324.2 58.1001C327.4 58.1001 329 59.6001 329 62.5001V63.4001L324.3 63.5001C321.2 63.6001 318.7 64.2001 317 65.4001C315.1 66.7001 314.2 68.5001 314.2 70.8001C314.2 72.5001 314.9 74.0001 316.2 75.1001C317.4 76.2001 319.1 76.8001 321.3 76.8001C323.2 76.8001 324.8 76.4001 326.2 75.8001C327.4 75.2001 328.4 74.3001 329.3 73.3001V76.3001H333.3V62.9001C333.3 60.3001 332.6 58.4001 331.4 57.1001C329.9 55.4001 327.6 54.6001 324.5 54.6001ZM329 66.5001V67.7001C329 69.3001 328.3 70.7001 327 71.8001C325.7 72.9001 324.1 73.5001 322.3 73.5001C321.2 73.5001 320.3 73.2001 319.6 72.7001C318.9 72.2001 318.6 71.5001 318.6 70.7001C318.6 68.1001 320.6 66.7001 324.5 66.6001L329 66.5001ZM353.4 46.6001V58.3001C351.7 55.8001 349.5 54.6001 346.9 54.6001C343.9 54.6001 341.5 55.7001 339.7 57.9001C338.1 59.9001 337.3 62.5001 337.3 65.6001C337.3 68.8001 338.1 71.4001 339.8 73.5001C341.6 75.7001 344 76.8001 347.1 76.8001C350 76.8001 352.2 75.7001 353.6 73.7001V76.2001H357.6V46.6001H353.4ZM348 58.1001C349.6 58.1001 350.9 58.7001 352 60.0001C353.1 61.4001 353.6 63.2001 353.6 65.5001V65.9001C353.6 68.0001 353.2 69.7001 352.3 71.1001C351.2 72.6001 349.8 73.3001 347.9 73.3001C345.8 73.3001 344.2 72.5001 343.2 71.0001C342.3 69.7001 341.9 67.9001 341.9 65.6001C341.9 63.3001 342.3 61.5001 343.2 60.3001C344.2 58.8001 345.8 58.1001 348 58.1001Z" fill="#FAFAFA"/>
<path d="M181.4 132.8L183.9 124.9C185.7 119.4 187.3 114.3 188.9 108.5H189.2C190.9 114.2 192.4 119.4 194.2 124.9L196.7 132.8H181.4ZM202.9 152.3H208.7L192.1 104H186.1L169.5 152.3H175L180 137.1H198.1L202.9 152.3ZM215.3 152.3H220.7V126.2C224.4 122.4 227.1 120.4 230.9 120.4C235.9 120.4 238 123.4 238 130.3V152.3H243.4V129.7C243.4 120.6 239.9 115.8 232.4 115.8C227.5 115.8 223.8 118.6 220.3 121.9H220.1L219.6 116.7H215.2V152.3H215.3ZM267.6 153.2C272 153.2 275.8 150.9 278.7 148.1H278.8L279.3 152.4H283.7V99.9001H278.3V113.9L278.6 120.1C275.3 117.5 272.6 115.9 268.3 115.9C260.1 115.9 252.7 123.2 252.7 134.7C252.8 146.5 258.6 153.2 267.6 153.2ZM268.7 148.7C262.1 148.7 258.4 143.4 258.4 134.6C258.4 126.3 263.1 120.4 269.2 120.4C272.3 120.4 275.1 121.5 278.4 124.4V143.7C275.3 146.9 272.2 148.7 268.7 148.7ZM296.4 152.3H301.8V129.1C304.3 122.9 308 120.7 311 120.7C312.4 120.7 313.2 120.9 314.4 121.3L315.5 116.6C314.3 116 313.2 115.8 311.7 115.8C307.6 115.8 304 118.8 301.5 123.3H301.3L300.8 116.8H296.4V152.3ZM334.5 153.2C343.3 153.2 351 146.3 351 134.6C351 122.7 343.2 115.8 334.5 115.8C325.8 115.8 318 122.7 318 134.6C318 146.3 325.7 153.2 334.5 153.2ZM334.5 148.7C328.1 148.7 323.6 143 323.6 134.6C323.6 126.1 328 120.3 334.5 120.3C341 120.3 345.5 126 345.5 134.6C345.5 143 341 148.7 334.5 148.7ZM360.8 152.3H366.2V116.7H360.8V152.3ZM363.5 109.1C365.6 109.1 367.4 107.6 367.4 105.5C367.4 103.2 365.6 101.8 363.5 101.8C361.2 101.8 359.6 103.2 359.6 105.5C359.6 107.5 361.2 109.1 363.5 109.1ZM390.7 153.2C395.1 153.2 398.9 150.9 401.8 148.1H401.9L402.4 152.4H406.8V99.9001H401.4V113.9L401.7 120.1C398.4 117.5 395.7 115.9 391.4 115.9C383.2 115.9 375.8 123.2 375.8 134.7C375.9 146.5 381.7 153.2 390.7 153.2ZM391.8 148.7C385.2 148.7 381.5 143.4 381.5 134.6C381.5 126.3 386.2 120.4 392.3 120.4C395.4 120.4 398.2 121.5 401.5 124.4V143.7C398.3 146.9 395.3 148.7 391.8 148.7ZM440.2 132.8L442.7 124.9C444.5 119.4 446.1 114.3 447.7 108.5H448C449.7 114.2 451.2 119.4 453 124.9L455.5 132.8H440.2ZM461.7 152.3H467.5L450.9 104H444.9L428.3 152.3H433.8L438.8 137.1H456.9L461.7 152.3ZM474.6 152.3H480.1V132.8H488.3C499 132.8 506.1 128 506.1 118C506.1 107.6 499 104 488 104H474.5V152.3H474.6ZM480.1 128.3V108.4H487.3C496.2 108.4 500.7 110.7 500.7 118C500.7 125.2 496.5 128.3 487.6 128.3H480.1ZM516.2 152.3H521.7V136.7L530.4 126.5L545.3 152.2H551.5L534 122.2L549.3 103.9H543L522 128.8H521.9V104H516.4V152.3H516.2Z" fill="#FAFAFA"/>
</svg>
